<svg width="20" height="16" viewBox="0 0 20 16" fill="none" xmlns="http://www.w3.org/2000/svg">
<path d="M1 3.53125C1 2.78125 1.78125 2.28125 2.5 2.5C5 3.15625 7.5 2.53125 10 1.90625C12.7188 1.21875 15.4375 0.5 18.1562 1.53125C18.6562 1.71875 19 2.25 19 2.8125V12.5C19 13.25 18.1875 13.75 17.4688 13.5312C14.9688 12.8438 12.4688 13.5 10 14.125C7.28125 14.8125 4.5625 15.5312 1.84375 14.5C1.3125 14.3125 1 13.7812 1 13.2188V3.53125ZM5 13C5 11.9062 4.09375 11 3 11V13H5ZM3 7C4.09375 7 5 6.125 5 5H3V7ZM15 11H17V9C15.875 9 15 9.90625 15 11ZM17 5V3H15C15 4.125 15.875 5 17 5ZM13 8C13 6.09375 11.6562 4.5 10 4.5C8.34375 4.5 7 6.09375 7 8C7 9.9375 8.34375 11.5 10 11.5C11.6562 11.5 13 9.9375 13 8ZM8.875 6.5C8.875 6.15625 9.15625 5.875 9.5 5.875H10C10.3438 5.875 10.625 6.15625 10.625 6.5V8.625H10.75C11.0938 8.625 11.375 8.90625 11.375 9.25C11.375 9.59375 11.0938 9.875 10.75 9.875H10H9.25C8.90625 9.875 8.625 9.59375 8.625 9.25C8.625 8.90625 8.90625 8.625 9.25 8.625H9.375V7.125C9.0625 7.0625 8.875 6.8125 8.875 6.5Z" fill="#01417F"/>
</svg>
