<svg xmlns="http://www.w3.org/2000/svg" width="24" height="24" viewBox="0 0 24 24" fill="none">
<path d="M15.5004 14H14.7104L14.4304 13.73C15.527 12.4524 16.0859 10.7996 15.9899 9.11866C15.8938 7.43772 15.1502 5.85937 13.9153 4.71498C12.6803 3.5706 11.05 2.94919 9.36661 2.98122C7.68324 3.01325 6.07775 3.69624 4.8872 4.88678C3.69666 6.07732 3.01368 7.68281 2.98165 9.36619C2.94962 11.0496 3.57103 12.6799 4.71541 13.9148C5.8598 15.1498 7.43815 15.8934 9.11908 15.9894C10.8 16.0855 12.4528 15.5266 13.7304 14.43L14.0004 14.71V15.5L19.0004 20.49L20.4904 19L15.5004 14ZM9.50041 14C8.61039 14 7.74037 13.7361 7.00034 13.2416C6.26032 12.7471 5.68355 12.0443 5.34295 11.2221C5.00236 10.3998 4.91324 9.49499 5.08688 8.62208C5.26051 7.74916 5.68909 6.94734 6.31843 6.318C6.94777 5.68867 7.74959 5.26008 8.6225 5.08645C9.49542 4.91282 10.4002 5.00193 11.2225 5.34253C12.0448 5.68312 12.7476 6.2599 13.242 6.99992C13.7365 7.73994 14.0004 8.60997 14.0004 9.49998C14.0012 10.0912 13.8853 10.6767 13.6595 11.223C13.4336 11.7693 13.1022 12.2657 12.6842 12.6837C12.2661 13.1017 11.7697 13.4332 11.2234 13.659C10.6771 13.8849 10.0916 14.0008 9.50041 14Z" fill="#FEFEFE"/>
</svg>
