<svg xmlns="http://www.w3.org/2000/svg" width="13" height="14" viewBox="0 0 13 14" fill="none">
  <path d="M9.62495 12C9.46186 12.0017 9.30017 11.9698 9.14995 11.9063C8.87422 11.7511 8.63571 11.5376 8.4511 11.2807C8.26649 11.0238 8.14025 10.7296 8.0812 10.4188C7.80635 9.64465 7.28056 8.98466 6.58745 8.54376C5.98985 8.13416 5.49387 7.59328 5.13745 6.96251C4.81773 6.40164 4.64167 5.7704 4.62495 5.12501C4.62495 4.29621 4.95419 3.50135 5.54025 2.9153C6.1263 2.32925 6.92115 2.00001 7.74995 2.00001C8.57875 2.00001 9.37361 2.32925 9.95966 2.9153C10.5457 3.50135 10.875 4.29621 10.875 5.12501H12.125C12.1317 4.54862 12.0231 3.9767 11.8056 3.44287C11.5881 2.90905 11.2661 2.42408 10.8585 2.01648C10.4509 1.60888 9.96592 1.28688 9.43209 1.06939C8.89826 0.851894 8.32635 0.743309 7.74995 0.750012C7.17356 0.743309 6.60164 0.851894 6.06782 1.06939C5.53399 1.28688 5.04902 1.60888 4.64142 2.01648C4.23383 2.42408 3.91182 2.90905 3.69433 3.44287C3.47684 3.9767 3.36825 4.54862 3.37495 5.12501C3.39292 5.98031 3.62269 6.8178 4.0437 7.56251C4.48182 8.34438 5.09069 9.01734 5.82495 9.53126C6.31649 9.82444 6.69345 10.2764 6.8937 10.8125C7.00447 11.2822 7.21389 11.723 7.50807 12.1055C7.80225 12.488 8.17445 12.8036 8.59995 13.0313C8.98076 13.2024 9.39837 13.2755 9.81468 13.2438C10.231 13.2122 10.6327 13.0767 10.9832 12.8499C11.3337 12.623 11.6219 12.312 11.8213 11.9452C12.0207 11.5784 12.1251 11.1675 12.125 10.75H10.875C10.874 11.0812 10.742 11.3986 10.5077 11.6328C10.2735 11.867 9.95617 11.999 9.62495 12ZM3.77495 1.15001L2.88745 0.262512C1.59882 1.55265 0.875 3.30155 0.875 5.12501C0.875 6.94848 1.59882 8.69738 2.88745 9.98751L3.7687 9.10626C2.71501 8.05008 2.12378 6.61875 2.12495 5.12684C2.12612 3.63494 2.7196 2.20453 3.77495 1.15001ZM6.18745 5.12501C6.18745 5.43405 6.27909 5.73614 6.45078 5.99309C6.62247 6.25004 6.8665 6.45031 7.15201 6.56857C7.43752 6.68684 7.75169 6.71778 8.05478 6.65749C8.35788 6.5972 8.63629 6.44839 8.85481 6.22987C9.07333 6.01135 9.22214 5.73294 9.28243 5.42984C9.34272 5.12675 9.31178 4.81258 9.19351 4.52707C9.07525 4.24156 8.87498 3.99753 8.61803 3.82584C8.36108 3.65415 8.05899 3.56251 7.74995 3.56251C7.33555 3.56251 6.93812 3.72713 6.6451 4.02016C6.35207 4.31318 6.18745 4.71061 6.18745 5.12501Z" fill="#0057A3"/>
</svg>
