<svg xmlns="http://www.w3.org/2000/svg" width="18" height="19" viewBox="0 0 18 19" fill="none">
  <path d="M11.6253 11.2907H11.0328L10.8228 11.0882C11.6452 10.1299 12.0644 8.89036 11.9924 7.62966C11.9204 6.36895 11.3627 5.18519 10.4365 4.3269C9.51023 3.46861 8.28749 3.00256 7.02496 3.02658C5.76243 3.05061 4.55831 3.56284 3.6654 4.45575C2.7725 5.34865 2.26026 6.55277 2.23624 7.8153C2.21221 9.07784 2.67827 10.3006 3.53656 11.2268C4.39485 12.153 5.57861 12.7107 6.83931 12.7827C8.10001 12.8548 9.3396 12.4356 10.2978 11.6132L10.5003 11.8232V12.4157L14.2503 16.1582L15.3678 15.0407L11.6253 11.2907ZM7.12531 11.2907C6.4578 11.2907 5.80527 11.0927 5.25026 10.7219C4.69524 10.351 4.26266 9.82391 4.00721 9.20721C3.75177 8.59051 3.68493 7.91191 3.81516 7.25722C3.94538 6.60254 4.26682 6.00117 4.73882 5.52917C5.21082 5.05716 5.81219 4.73573 6.46688 4.6055C7.12156 4.47528 7.80016 4.54211 8.41686 4.79756C9.03356 5.053 9.56067 5.48559 9.93152 6.0406C10.3024 6.59562 10.5003 7.24814 10.5003 7.91565C10.5009 8.35903 10.414 8.79817 10.2446 9.20791C10.0752 9.61765 9.82663 9.98994 9.51311 10.3035C9.1996 10.617 8.82731 10.8656 8.41756 11.035C8.00782 11.2044 7.56869 11.2912 7.12531 11.2907Z" fill="#525661"/>
</svg>
